# xmcd CD database file generated by Grip 3.2.0
# 
# Track frame offsets:
#       150
#       30230
#       56133
#       73090
#       95248
#       111900
#       136405
#       147970
#       169875
#       188605
#       211803
# 
# Disc length: 3021 seconds
# 
# Revision: 15
# Processed by: cddbd v1.5.2PL0 Copyright (c) Steve Scherf et al.
# Submitted via: Grip 3.2.0
# 
DISCID=a20bcb0b
DTITLE=Tom Waits - Small Change
DYEAR=1976
DGENRE=Other
TTITLE0=Tom Traubert's Blues
TTITLE1=Step Right Up
TTITLE2=Jitterbug Boy
TTITLE3=I Wish I Was in New Orleans
TTITLE4=The Piano Has Been Drinking (Not Me)
TTITLE5=Invitation to the Blues
TTITLE6=Pasties and a G-String
TTITLE7=Bad Liver and a Broken Heart
TTITLE8=The One That Got Away
TTITLE9=Small Change
TTITLE10=I Can't Wait to Get Off Work
EXTD=All selections written by Tom Waits.\nTom Waits: piano, vocals\nLe
EXTD=w Tabackin: tenor sax\nJim Hughart: bass\nShelly Manne: drums\nStr
EXTD=ings arranged and conducted by Jerry Yester.\nviolins: Harry Blues
EXTD=tone (concertmaster), Israel Baker, Nathan Kaproff, Nathan Ross, G
EXTD=eorge Kast, Murray Addler, Marvin Limonick, Alfred Lustgarten, She
EXTD=ldon Sanov\nviolas: Sam Boghossian, David Schwartz, Allan Harshman
EXTD=\ncelli: Ed Lustgarten (orchestra manager), Kathleen Lustgarten, R
EXTD=ay Kelley, Jesse Ehrlich\nRecorded direct to 2-track tapeby Bones 
EXTD=Howe at Wally Heider Recording, Hollywood US-CA, 1976-07-16,19/21,
EXTD=29.\nMastering: Terry Dunavan, Elektra Sound Recorders,Los Angeles
EXTD=US-CA\nProduced by Bones Howe.\nOriginally releasedas Asylum LP 7
EXTD=E-1078 (1976-10).\nCD mastering by Stephen Innocenzi, Atlantic Stu
EXTD=dios, New York US-NY.\nCD: Elektra/Asylum 1078-2 (1990-10-25), UPC
EXTD=075596061223.
EXTT0=(Tom Waits]\nsubtitle: Four Sheets to the Wind in Copenhagen
EXTT1=(Tom Waits)
EXTT2=(Tom Waits]\nsubtitle: Sharing a Curbstone with Chuck E. Weiss,Rob
EXTT2=ert Marchese, Paul Body and the Mug and Artie
EXTT3=(Tom Waits]\nsubtitle: In the Ninth Ward
EXTT4=(Tom Waits]\nsubtitle: An Evening with Pete King
EXTT5=(Tom Waits)
EXTT6=(Tom Waits]\nsubtitle: At the Two o'Clock Club
EXTT7=(Tom Waits]\nsubtitle: In Lowell
EXTT8=(Tom Waits)
EXTT9=(Tom Waits]\nsubtitle: Got Rained On with His Own .38
EXTT10=(Tom Waits]\nsubtitle: And See My Baby on Montgomery Avenue
PLAYORDER=
